<mxfile host="65bd71144e">
    <diagram id="LYHRXwgHwGcUsbu9RRza" name="ページ1">
        <mxGraphModel dx="1676" dy="828" grid="1" gridSize="10" guides="1" tooltips="1" connect="1" arrows="1" fold="1" page="1" pageScale="1" pageWidth="1169" pageHeight="827" math="0" shadow="0">
            <root>
                <mxCell id="0"/>
                <mxCell id="1" parent="0"/>
                <mxCell id="2" value="BigQuery" style="editableCssRules=.*;shape=image;verticalLabelPosition=bottom;labelBackgroundColor=none;verticalAlign=top;aspect=fixed;imageAspect=0;image=data:image/svg+xml,PHN2ZyB4bWxucz0iaHR0cDovL3d3dy53My5vcmcvMjAwMC9zdmciIHhtbG5zOnY9Imh0dHBzOi8vdmVjdGEuaW8vbmFubyIgd2lkdGg9IjIwLjAwMTA0NTIyNzA1MDc4IiBoZWlnaHQ9IjIwLjAwMTA0NTIyNzA1MDc4IiBmaWxsLXJ1bGU9ImV2ZW5vZGQiIHZpZXdCb3g9IjAgMCAyMC4wMDEwNDUyMjcwNTA3OCAyMC4wMDEwNDUyMjcwNTA3OCI+JiN4YTsJPHN0eWxlIHR5cGU9InRleHQvY3NzIj4mI3hhOwkuc3Qwe2ZpbGw6I2FlY2JmYTt9JiN4YTsJLnN0MXtmaWxsOiM2NjlkZjY7fSYjeGE7CS5zdDJ7ZmlsbDojNDI4NWY0O30mI3hhOwk8L3N0eWxlPiYjeGE7CTxwYXRoIGNsYXNzPSJzdDAiIGQ9Ik00LjczIDguODN2Mi42M2E0LjkxIDQuOTEgMCAwIDAgMS43MSAxLjc0VjguODN6Ii8+JiN4YTsJPHBhdGggY2xhc3M9InN0MSIgZD0iTTcuODkgNi40MXY3LjUzQTcuNjIgNy42MiAwIDAgMCA5IDE0YTggOCAwIDAgMCAxIDBWNi40MXoiLz4mI3hhOwk8cGF0aCBjbGFzcz0ic3QwIiBkPSJNMTEuNjQgOS44NnYzLjI5YTUgNSAwIDAgMCAxLjctMS44MlY5Ljg2eiIvPiYjeGE7CTxwYXRoIGNsYXNzPSJzdDIiIGQ9Ik0xNS43NCAxNC4zMmwtMS40MiAxLjQyYS40Mi40MiAwIDAgMCAwIC42bDMuNTQgMy41NGEuNDIuNDIgMCAwIDAgLjU5IDBsMS40My0xLjQzYS40Mi40MiAwIDAgMCAwLS41OWwtMy41NC0zLjU0YS40Mi40MiAwIDAgMC0uNiAwIi8+JiN4YTsJPHBhdGggY2xhc3M9InN0MSIgZD0iTTkgMGE5IDkgMCAxIDAgMCAxOEE5IDkgMCAxIDAgOSAwbTAgMTUuNjlhNi42OCA2LjY4IDAgMCAxIC4wMDctMTMuMzYgNi42OCA2LjY4IDAgMCAxIDQuNzI3IDExLjQwM0E2LjY4IDYuNjggMCAwIDEgOSAxNS42OSIvPiYjeGE7PC9zdmc+;fontColor=#000000;fontSize=24;" parent="1" vertex="1">
                    <mxGeometry x="695" y="351" width="100" height="100" as="geometry"/>
                </mxCell>
                <mxCell id="48" style="edgeStyle=none;html=1;entryX=0.5;entryY=0;entryDx=0;entryDy=0;" parent="1" source="4" target="2" edge="1">
                    <mxGeometry relative="1" as="geometry">
                        <Array as="points">
                            <mxPoint x="745" y="110"/>
                        </Array>
                    </mxGeometry>
                </mxCell>
                <mxCell id="4" value="Cloud Functions" style="editableCssRules=.*;shape=image;verticalLabelPosition=bottom;labelBackgroundColor=none;verticalAlign=top;aspect=fixed;imageAspect=0;image=data:image/svg+xml,PHN2ZyB4bWxucz0iaHR0cDovL3d3dy53My5vcmcvMjAwMC9zdmciIHhtbG5zOnY9Imh0dHBzOi8vdmVjdGEuaW8vbmFubyIgd2lkdGg9IjIwIiBoZWlnaHQ9IjE5Ljk4OTk5OTc3MTExODE2NCIgdmlld0JveD0iMCAwIDIwIDE5Ljk4OTk5OTc3MTExODE2NCI+JiN4YTsJPHN0eWxlIHR5cGU9InRleHQvY3NzIj4mI3hhOwkuc3Qwe2ZpbGw6IzQyODVmNDt9JiN4YTsJLnN0MXtmaWxsOiM2NjlkZjY7fSYjeGE7CS5zdDJ7ZmlsbDojYWVjYmZhO30mI3hhOwk8L3N0eWxlPiYjeGE7CTxwYXRoIGNsYXNzPSJzdDEiIGQ9Ik0zIDMuOTlMMCA2LjQydjcuMTNsMyAyLjQ0eiIvPiYjeGE7CTxwYXRoIGNsYXNzPSJzdDAiIGQ9Ik0zIDMuOTlsLTMgNCAzLTJ6bS0zIDhsMyA0di0yeiIvPiYjeGE7CTxwYXRoIGNsYXNzPSJzdDIiIGQ9Ik0wIDE1Ljk5bDQgNCAyLTItNi02em0uMDEtOEw1Ljk5IDJsLTItMkwwIDMuOTl6Ii8+JiN4YTsJPHBhdGggY2xhc3M9InN0MSIgZD0iTTE3IDE2bDMtMi40MlY2LjQ0TDE3IDR6Ii8+JiN4YTsJPHBhdGggY2xhc3M9InN0MCIgZD0iTTE3IDE2bDMtNC0zIDJ6bTMtOGwtMy00djJ6Ii8+JiN4YTsJPGcgY2xhc3M9InN0MiI+JiN4YTsJCTxwYXRoIGQ9Ik0yMCA0bC00LTQtMiAyIDYgNnptLS4wMSA4bC01Ljk4IDUuOTkgMiAyTDIwIDE2eiIvPiYjeGE7CQk8Y2lyY2xlIGN4PSI2IiBjeT0iOS45OSIgcj0iMSIvPiYjeGE7CQk8Y2lyY2xlIGN4PSIxMCIgY3k9IjkuOTkiIHI9IjEiLz4mI3hhOwkJPGNpcmNsZSBjeD0iMTMuOTkiIGN5PSI5Ljk5IiByPSIxIi8+JiN4YTsJPC9nPiYjeGE7PC9zdmc+;fontSize=24;" parent="1" vertex="1">
                    <mxGeometry x="395" y="61" width="100" height="100" as="geometry"/>
                </mxCell>
                <mxCell id="11" value="&lt;br style=&quot;font-size: 24px;&quot;&gt;" style="edgeStyle=none;html=1;entryX=0;entryY=0.5;entryDx=0;entryDy=0;fontSize=24;" parent="1" source="6" target="4" edge="1">
                    <mxGeometry x="0.0803" relative="1" as="geometry">
                        <mxPoint as="offset"/>
                    </mxGeometry>
                </mxCell>
                <mxCell id="6" value="Cloud Storage&#10;(flight log data)" style="editableCssRules=.*;shape=image;verticalLabelPosition=bottom;labelBackgroundColor=none;verticalAlign=top;aspect=fixed;imageAspect=0;image=data:image/svg+xml,PHN2ZyB4bWxucz0iaHR0cDovL3d3dy53My5vcmcvMjAwMC9zdmciIHhtbG5zOnY9Imh0dHBzOi8vdmVjdGEuaW8vbmFubyIgd2lkdGg9IjIwIiBoZWlnaHQ9IjE2IiB2aWV3Qm94PSIwIDAgMjAgMTYiPiYjeGE7CTxzdHlsZSB0eXBlPSJ0ZXh0L2NzcyI+JiN4YTsJLnN0MHtmaWxsOiM0Mjg1ZjQ7fSYjeGE7CS5zdDF7ZmlsbDojNjY5ZGY2O30mI3hhOwkuc3Qye2ZpbGw6I2FlY2JmYTt9JiN4YTsJLnN0M3tmaWxsOiNmZmY7fSYjeGE7CTwvc3R5bGU+JiN4YTsJPHBhdGggY2xhc3M9InN0MiIgZD0iTTAgMGgyMHY3SDB6Ii8+JiN4YTsJPHBhdGggY2xhc3M9InN0MSIgZD0iTTE4IDBoMnY3aC0yeiIvPiYjeGE7CTxwYXRoIGNsYXNzPSJzdDAiIGQ9Ik0xOCA3bDItN2gtMnoiLz4mI3hhOwk8cGF0aCBjbGFzcz0ic3QxIiBkPSJNMCAwaDJ2N0gweiIvPiYjeGE7CTxnIGNsYXNzPSJzdDMiPiYjeGE7CQk8cGF0aCBkPSJNNCAzaDZ2MUg0eiIvPiYjeGE7CQk8cmVjdCB4PSIxMyIgeT0iMiIgd2lkdGg9IjMiIGhlaWdodD0iMyIgcng9IjEuNSIvPiYjeGE7CTwvZz4mI3hhOwk8cGF0aCBjbGFzcz0ic3QyIiBkPSJNMCA5aDIwdjdIMHoiLz4mI3hhOwk8cGF0aCBjbGFzcz0ic3QxIiBkPSJNMTggOWgydjdoLTJ6Ii8+JiN4YTsJPHBhdGggY2xhc3M9InN0MCIgZD0iTTE4IDE2bDItN2gtMnoiLz4mI3hhOwk8cGF0aCBjbGFzcz0ic3QxIiBkPSJNMCA5aDJ2N0gweiIvPiYjeGE7CTxnIGNsYXNzPSJzdDMiPiYjeGE7CQk8cGF0aCBkPSJNNCAxMmg2djFINHoiLz4mI3hhOwkJPHJlY3QgeD0iMTMiIHk9IjExIiB3aWR0aD0iMyIgaGVpZ2h0PSIzIiByeD0iMS41Ii8+JiN4YTsJPC9nPiYjeGE7PC9zdmc+;fontSize=24;" parent="1" vertex="1">
                    <mxGeometry x="84.25" y="61" width="125" height="100" as="geometry"/>
                </mxCell>
                <mxCell id="51" style="edgeStyle=none;html=1;entryX=1;entryY=0.5;entryDx=0;entryDy=0;" parent="1" source="7" target="2" edge="1">
                    <mxGeometry relative="1" as="geometry"/>
                </mxCell>
                <mxCell id="7" value="dbt" style="shape=image;verticalLabelPosition=bottom;labelBackgroundColor=none;verticalAlign=top;aspect=fixed;imageAspect=0;image=data:image/png,iVBORw0KGgoAAAANSUhEUgAAAQ4AAAEOCAMAAABPbwmXAAAAilBMVEX/aUoAAAD/aEj/aUn/aUr/cED/aUv/aEr/aUn/aUr/aEj/cFD/aEr/aEr/aEj/aEn/aEj/akn/aUn/akr/akr/aUr/aEz/aEn/ZUr/aUn/Zkn/akr/Zkv/aUr/aUv/ZUX/Zkf/akr/aUr/aEr/aUb/aUn/aUn/aU3/aEj/Z0n/akr/Zkb/aFD/Zkmj8EYWAAAALnRSTlP/ACDf3xDvYKDvQBCfgGCQf8+/z4DAQL8wj3CfcK9wMHCQz7BQUHBQsK8wUCBQIPhXUwAADS1JREFUeJztndl62zYQhWlqcSTLkp1a3uokrZs0adq+/+sVJAgRILYZcgYA+fXk1qGoX5gzGKzVVUhfXg/3u2r1dPpaB/+ueNXHw/2q2j2djl+Cf+fHsTkedlWvp+NsiWzuVtoXWR32/j/14difdBZSh1kCqT9YX2Tl/SZuHPsn6xEzBbK5s3/WwDdx4fDBaLjebVjfnlg+GF4gNo6N3bgMIEf2L0GlEIxGd/Z/sXB8DT9iRkC+6gbq/iZWAxnieIk9otFfM7CQQMRr+m3wv0wc9T3kGUKle2oNgiE0CBgDRx1tXhetHIFXjGKmoeuTkRt0HAgaRVvIKxyG0L3OQ8OBo9E8qMiI2UMD3sWjx4GmIVSehYBNw83jgmMMjaralWUhG1BitPTr5QEXHNgmplSSheBMQ9OLeoLCcTfyQUJPhUTMflT7llL9jw7HcfyThEqwkDGm0WvXfQOJY5xx9FoNe3eptZnQulvdy+dIHOGqrXwLGW0aveQP2uJ4nvwwoXwRAytPIpLh0uKYGCpKL1mA1J9o3v6gcEzzUU0ZIgZTnkTUDKE2OCjaWqdVeKCaXPExDbg+Shx7uicKpbQQEtPoJd5c4JieVkyl6reP7JH7ddvguNkSPzWRhRAk14F2DQ4yI9XEP3qILuMh2gsc1LEixWshVMl1oJPAQR4rUowRQ5hcTe2uqp88TxbiSrpTKteI6uqN7dk8ETOtco3otToxPp0+6U6uXMM6VJywhWgt5MhkGkrvFZOT9qJLusSdUIeYaUvRVLrknVCn1gk+gyJi6DuhTv2R5FPsuXKc+OOk1TtzZuk1JemmiROhH9V1ok+aEDGJ4kTourpJ9VFj53Sf08RJq7q6+pju00ZETLI4aXQWJRxnL90SNmKOfPWJQ9cswz9BIXLM5jUpjGrdDg7eJv1MTMQ8pH2xhxZH4uaBmcL8nPK1momnZmIhdfMQQALLwg09J/ypTuLzGhzJm4cQNGLqFEVEq3XzRu2kZNI22Qm6bigZD+EcagY/2U+gC5h0E/EQaeWCg3YiDixYxKTxj2t99U/KrqkuUMR8S/AisnEoHJmaBzBiEnjbo7lUjmceByLI4OHv3C/RLu7QcNQZkq1SfPDwhttO1Rtc1pWm74v1ikcM86/V9MBMHDn6Yr2ihR2rfbQ9sMGa9Bx9MU2xpMuZ+2SSHexYyNIX6xWJGJLVjW51SXaAI1uyVQrPcfOZW984jO09ufpivUIRw2ZuKslau52YPg+h0J4yruah/wTGXjj23g5Aq78TNw+9cZg48iZbJW/EsDSPPsnaG0dz9sU0eSKG5dfSfNTeVpw52Sp5ki7Dr6UlWQeO7MlWyRkxDDOG38KbzvMnWyXXWRDkb2f4qAMHY+cPK0fEfKf+jGEbtE5oKCHZKllz3NRm2g4XB3GUkWyVhhZCuzjHTLLu40wyV7YDDSKGdjWKmWQ9h90UkmyVjKEQ0twySLIeHMUkWyU9Yn4hfO4z7CikcpJtJ22Om3Ap2zDJ+nAUUNkOdSnsCM0DdjKUUCGli6EuYuh+KivJenGUlWw7dXPcVK/m8FHvqXJlJVulNulSeamdZANnDhbnplIiYog6Ymf39/bgKC7ZKt0RpRbPEJPvRMp8c7ZJ5EqyIRw552z5ZRcrseNbS0y2ZHL7aAgH+6R5RrmTbPhw32RbGdJrMCIIwlFqsp0un4+GcRSbbKcqMPMZOhi8pHFCQjmLFQCOIkuXyfL7aATHMpOtN8lGcZQ2TkghT7ECwrFANw2vuQrjWF6yDSRZAI6llS7eYgWGY2luGvRRAI5lJdtgkoXgWFbpEl3tHcWxJDeN+CgIx3KSbcxHQTiWU7r8Gf+uABxLcdOoj8JwFDrrgpZjhnoUDtJp82yK+ygUxxLcFOCjUBxLmHUB+CgYx/xLF4iPgnHMv3SB+Cgcx9xnXUA+CscxczeF+SgCx7xLl1hdj8cxZzcF+igGx5zdtNtgT4pjvqVLePB8JI75Ng9448DgmGvzQDQODI65Ng9wWkHiYDutcfvw+PjG1dGDpxUkDq6+x7nd5nXDNIwA7ZDicfB0TT90T2figToEE4WDxUwVDSYe75gviMPBcT1FT4OHx+XgFgYc9HNQOg0WHohOBxoHeW4xaTDwEFfQ8OGgHkQe0qDngemD4XHQHiNu0yDnIe5rYsRBah4uGtQ8cNaBxUG5Tc5Ng5iHYyM/IY4ruhf10SDlgXRSNA6yysJPg5IH0knROKg2wYdoEPL4wYyDqF8apkHHA9cnxeOgGfP4FP0cIh7IPJsHxxrg9zTlIjcOko7HK+STSMBjRsKy4QD1jUgGV/7HYWgWOEARTXJRCjcOkojeAax0Q3IZySwyS3ttdIQGzX2z3DiIKvxf09DADaOPwEHVSQ/zoKLB3kknu4YrxIOMBm7OaQQOuqkFPw86GhV6/AL355Rjxz4elDRwk05oHKTzcG4epDSwHQ8kDtpL5Fw8aGlgK3wkDuL7SW0exDSQc5JYHNSTtEMe1DSwY8c4HPS3xJs86GkgzQOHg+H+SZ0HAw1kvxSHg2PFQc+DgwaoXByJg+dsRsWDhUZVQS8oxONgWiv3qe0rMdEAVM9jcXDdh7o6HF8PbDc0Y6IFg+PI9cK8wox5YHAkvFSaUhgzReCY7ZYWRPNA4GBYJ5dGiOYBxzHbxoFpHnAcaa/ZJlVzLTMxjpmmFSlw3wOKo55x4xCCdk2hOGbro1IroJsCcRR0bcs4Ad0UiGPeodII5qYwHK+5v8x0wdwUhGPmPir1lQzHzH1UCuSmEByz91EpiJtCcCwhVIQgfVMAjln3R3UB3DSOYxE+KhXvm8ZxLMJHpeJuGsVR4M1G4xV10yiO5YSKUNRNYzgW46NSscXwscN9F9U4hCJuGsFxl/v1qXU/BceifFSqv3EPj2NBSVYpPKwexLEwH5V6GY1jaT4q9WUkjsX5qFSodAngqNnm1DMrMBAUwLFAH5UKlC5+HAtMskr+0sWPY5k+2spfunhxLDLJKnlLF+8ligtuHEK+0sWHY6FJVsmXbD04iHz0ttjs5CldPDiIvsbr1fdCD0n2lC5uHN+IPrRZAf25TCDuZOvGQeWj7faJusyIcSZbJw6yJNudNVOX2ECcburCQZhkVfV4XSAQV7J14SBs3JejKQqMmBUMB2Wxom3rrYu71sThpg4clNdtGAdVlRYxjmRr46AtVowAvXkgffZk2eOENg7aYmWwcbMwC7HGCS0cxMWKdaxbURFjJdshDvJK1k5nJUXM8O2GOMgbs2Obc0ERMxwnHOCgHxF01krlFHaDZDvAwbChyX1I2EMhQAa/lomDY0TQM0lcSsSYydbEwTIi6BuI+1lGAzFez8DBMyLon/UqIukar6fj4Bou9i8xKSJi9NfTcXC9W2iJSQFDIXplq+Hgm3YLLjHJHzFastVw8F0cGV5iUue+/1d7vR4H57RbcImJAEJ8hs741+txsE67xZY/Z46YyzDyBQfvnGx8+XPWwu6SbBUO7jnZ+G6BrElXtV6F44X7A++iPHJGjPq1OhwJ1rZA9qI9ZLt6rusLdDgSNNRdaMVe9ojpkq3EkWS32wq0lTVXYSf7YhJHmrUtMB6ZLEQ2jxZHqoVPQB55Iqbti7U4ki18AvLIU9g179bgSLgqbgXx00wR0yTbBkfKVXG78AaKrIWdaB4CR+JVcYD+WKY5bjEHUl3dpF0yuX6Dn9OUOGJEcqnSrqddI88eTgvkVuBIeVbcCXVaZqM6ZaW7u6oSrsQ/P2NhpLaQfUW1ZjKq7Z9jYDRKFzEn8a/UOMmQdD9WaazjjLzbMdNo6lr849f4OOmVf/6BSlPiRFOSSX/28adx+cQl/kr3vWJOY+tvVDBSJN0fFSvx7QNNnPTitZDbiuFg/IvOyNtRQOIcXv6XsVe6nphcfWK0kE1FfqlGp+0DD4wWyJnnnd9FCcfTLSVKrj7xWMhJ4OA40nlqJzQTkC/NaBh5tGAHNcaJ3kLEVjWBg/giCfrkmgqI+BUFDtrcwpJcfXqkjJi1HDq++kj3yF/4TcMUoYU0u1wbHGRmSlG5okXVLduqaSeq+Xvm5OoTkYW0/aQWR00BOKlp0AORl3HKGfzPxfbIgZq+I0R2DrrlLhMLZ84eOVATPbXbhaQWQ00Kl0ymMdAUT11330AtlZsQLgl65DCNt5A2qzS6rCsdO3af2TRMjQVy+Q79quNRT0rXIwdqVD+1r7F6HDcj7LQM0zCF91St4tR2LKB5FGMaAyFnIPT6W9/eg+NRlGmYwljI1hiNMPbCIXgU0NMICQxka84CDfbRQvNLiaZhCjae2hT1uoabzkGrSzKWJwgBPNX6Va0TGvbRh5TqoLYiQLb2DKF9fkck7NIMhFIplGRcAe88GcofdsV1u2LyrpRxB7z7GLVrN5DZwWjkau3bkyfgfSdSPn+w6sNZwmhUD875O/uXtvpPs91cG0QCz5iBvn+QRLbvp+vQ9wifov/8djpvq+36j7d/SN8uhzaPj8/Rb/Ef60yeVfLBc+QAAAAASUVORK5CYII=;fontSize=24;" parent="1" vertex="1">
                    <mxGeometry x="995" y="351" width="100" height="100" as="geometry"/>
                </mxCell>
                <mxCell id="23" style="edgeStyle=none;html=1;entryX=0;entryY=0.5;entryDx=0;entryDy=0;fontSize=24;" parent="1" source="9" target="52" edge="1">
                    <mxGeometry relative="1" as="geometry">
                        <mxPoint x="445" y="351" as="targetPoint"/>
                    </mxGeometry>
                </mxCell>
                <mxCell id="9" value="Meteorological Agency&#10;Web Page&#10;(weather data)" style="shape=image;verticalLabelPosition=bottom;labelBackgroundColor=none;verticalAlign=top;aspect=fixed;imageAspect=0;image=data:image/png,iVBORw0KGgoAAAANSUhEUgAAASwAAAEsCAYAAAB5fY51AAAAGXRFWHRTb2Z0d2FyZQBBZG9iZSBJbWFnZVJlYWR5ccllPAAAFdhJREFUeNrs3T9y40iWx/FUdxvjDfsEze4LiDoBoagDFMvbtUSdQNIJJHm7FiVrYy2xvPVKdYAJQScoyhtPLG+8YXszVi+e9NCFgjKBxD8yCXw/EYySVBQIJoifXiYSgDEAAAAAAAAAAAAAAAAAAAAAAAAAAAAAAAAAAAAAAAAAAAAAAAAAAAAAAAAAAAAAAAAAAAAAAAAAAAAAAAAAAAAAAAAAAAAAAAAAAAAAAAAAAAAAAAAAAAAAAAAAAAAAAAAAAAAAAADAXjjY1xV/F01HyT+T5BHpj6ZsTsDpUf+Nk8fqb/HjhsDaTkjNk8eJhhWAelbJ42PyWO5TeO1FYGlQnSePs+Qx4rMGtEbC6jZ53OxDcAUfWElYzZJ/7ggqoPPgOk1C657Aql9VLbQLCGA7lsnjItRqK8jA0rB6MIxTAbsg41vHIYZWcIFFWAGElssPATbUJ8IK2LmJ7otB+TGw6urKMGYFhGL823h88Lz+GtMlfBtWkuhf+IwAwTlKuoYruoTfW/C5AIIUzL4ZRGAl1VVkvp1iAyAske6jBJY64zMBBC2IfXTnY1g6jeGffB6A4P2862kOIVRYMz4HwF7Y+b76UwCN0NVlYZbJ40m/PtTGbnI+4jp5yHlWX3U5st5N+/Wxeb3sx1rXcW44ZxLhmup+NejAanuSqJSsx/nDsEnX89rUn5QqG+nN+VXJMiVg7mqu45sTTXUdOX8Sodr5hO4QxrD+aHmRzjkjOl72XLGKiZPlHRes/7mpftj3Q9FZ8ckyvxhm+yNAyed2p5nxQ8/ac1k0wU0rpOuKy7wo2YA32qXztfK4hMc1uwbQ/8D67FMxVfyL4jPD977NdQz9mkQAgdWOTUvPSflWTr/zUQIIrKreezynytjQ+F00HXs8r8qRzsOyJ3i+JkBg7bmZDqwXqTpjd14SLtk79/iuY1kgXfLRBPofWBIEi4JwuTPV505d6vQF2/IkHOtMa/jkClZ9rTkfTeCtPk5rEDJQLkfaZErCRm9kcWaaTfRcJo9bGYTXCinScKw70XOt63iv6zjRdSSsEKxdT2voa2AB6GFg/cAmALAvCCwABBYAEFgACCwAILAAgMACMDQ/BbxuMZsH2JmIwKqg6KJ5ALoV6oRuuoQA9gaBBYDAAgACCwCBBQAEFgAQWAAILAAgsACAwAJAYAEAgQUAtfxEE6CJd9E0ynw71kfWWh8v/hY/xrQaCCx0GUpy78X0DteH5vVejFHNZaVfxhpkX/XrldyfkdYGgYU6ASWBNNV/Jx28TDbwLvV1Vxpej0l43bMlQGChKKTkDtnv9d9dmOjjXCsxCa3PRu+OzVYCgUVQSaVzoiE1Cmz1ZvpYJOsp4fWRMTACC8MMqnnyz1lH3b22SZDK+s6123ibBNeSrTg8TGsYYFAlj+fky7s9CStbt/FO3oOGLggs9Dyoxh28hFQ+R5afH+n/tW1McBFY6F9QRcnjoWZQyUC3jB1dJI9T/d5GumfHSTftTTDpz471Oa7XONXXuC94jbLgesjNCUMPMYbV36CScR+ZLnBeM6Q+p1MLkmVJN0xCzzYof5E876ZogXqE7zRZzlPy7yL33yP92XG6nOR52aOVvgcCJKwknGUZ1xxVpMLCHlVVyT9fKobVSiudX5Od/dQjrCQQPpSFVS645LkfLFWULPtBX0ueJ9MYXtZF16lKl1Le8xeqLQIL+xFWCw0Y3+5f2p07kiNv2cqkJKyO60zu1N85LguttDLTdToq6VbauokP2hYgsBBiFzB5VKmq7jPVVGxZniusVsYxXlUhtNJxrVVZaGV+J85UXb5BKRNQv2j3GAQWAgkr2cHlCKDPNIVYA0e6c2tX+HUVVhVCa+T4vbWsu/5u7PFSL21jC0EQWNh+WM2Ne0A8342TAfLjotniHmHV2mC2LqtyaGUqLvndC1N+ZDFd3pxPDIGF3YbVnUdYpd0/nwFy24TSTdthZQmtjaUyuvP4/RvPbqK00R2hRWBhN2F17rFDp1XVB5+wSZZ5Zd6e+NxZWHmE1kzXqfT3tZvoU23daduBwMKWwkqOfpUdAVubzNwmj2VGRi/zktPKmJVH6KRjWnmXvlMU9L0em8wFAx0WHEEksLC9bmBZhRAnjyPfoNGxok+W/zrdRljlQuvU8l+ffI/06TKOTPmA/DndQwIL3YdVWTdwqQPrVbpwElYjy3KW236P+pr513UFalEX0WfeFmNaBBY6CqvIM6xOKy5XqrV8l2tVdTkth5ZtdntUdexJl+MTWhGfMAIL7YXVxKPCOK0RVmPzdtzq5ZSbAN627RSeS13nqqFV1i6fmKdFYKGdsBqZ8qkLNzW7bwvLcq9dE0q3XGXJOlxbuoaLGsuStik6+JBOeWBGPIGFhmQHnZR0Ay9qdjHzUxjiKiczbyG0ZF3i3I9ndbpw2kZFoT6pE4YgsPAtVObm9dLARWFVd6zpztIVPA2wGWzX4bqrsyCPMa05g/AEFuqF1bjkL74MSl/UXPaVeXs1hyC6go6u4W3ux+MGkz8vTPHlahZVx8lAYKF43Cq9FlXl2ec6TnOW+/E6pK6gJbQkYPNhellnzEnbzDagnxrVreBAYA25KxgVdZMaVEPnliA83YNmObUES60qS9uu6D1HdA0JLPhXQEVdwdjUvKmDo7qK9+Fef7qO+fU8a3Bkb2WKZ8MvOGoYHq7pHp5LUzyFQSovub7TWne4R/M60dMnxGzV1fUetc11rvJMq6wrj7BO7yo91WWMS34lvSb+BR9JAgv2nWpcoZsjz53rQ353o1XDY1qFWca4TvaxuspWWcn7jHOhdZIPLK2MJvq8qX5dp1qS8w1vQzwYQWAhlOqqrpHuoFG6HK3C1hpif7VUFdd72Eb5KmusV174XcNpbNq976K05SkfTQILb6urueO/pVKSQ/vvTbW7Nac7b+TqXmpXSSqzzTavzFCxbdIKyVUpNbm+lbznz+Z1bM+2bJmbdU2VRWDBv7q61UP7V9rdSbs6kWl2u/nLXDD82VXMBOVT5ut8oK2r7sgazPkKKBtEh5mvow7aOR1sf9Qu8Sbz3i+pssJ2EMBfzz8c4xUHQ9kIuhM/F1RXvxbNudJTVSLd2Semm1vR76O1BtSTKRmv0z8Ez8Y91vXzkG7OGup+SYUVhnlJdVW4o+QP+WeqmDTEZgNpx/s0nIz9oENRG25kgL2gyvI6GgkCawhOCqqryjPQtZsmj1jHf/KBdaOVxNi0P0jddcWUPjbm7djVdcNxOGkX11jWCYFFYA1eEiizgsBYttANyYfh2nZ1h0xVlg5uG/P9eFKXwZaGUBrS6bjZSr+3jpVZ2u7E1JxUm6mylsY+iC9HI2d17nYNAqtP3hd1B1tY/szSbSqqypzPsQRGZPnxQ+77/I0l2jwaeZ8LF3mvTSd63hr3Ucf3xv+u0yCwesk1vnTf9FC6dgfzVdHntlbccYv70ue06HMuXKQKGjdpN/ldy+TU7LbiaOEOcS7h7ruDo4KdsanIUt3EfWk/fS8bzz8AVXx0/Hyk2wwEFt1Bn65bRdPc93EP2zAuec91u5p1thkIrF6LCrqDmw6W/9jDNnz0bNMqldumILQiPrYE1hC7g0UTPD+3sPyxpbvZxwprZem2jVtYrmsbjLkiKYE1RJMK3ZxWqrdQzxVsWA3FFdu2bleTKovAGjTXWMu6pRNtxwOorlzvrXFg5aZ5+G47EFiDq7DaCpZpSdepT9YdBUpcozoGgTWowHpqafn5Cuv3Hrfl15L3XtcTgUVgDV7JbdHbqoSG3CVsK7BWNbchCKxecV6ut42JnY6dqc+XRtlY2qBxaJVsC25QQWANRuS747UViH08Qljy3tqqsjYVtyEIrMFoK1T4699eG6xoSgJr6A47rrAmA9zpViVt0HaFdcjHmMAa+l//p45ebwiX9u3qPT5RxRJYAFAZ18MKy8m7aNrGpMdxvnuULPdhF29oi6872VJbgsBCZufoYgdJbw22C1HP2hJ0CQGAwAJAlxAdiU07F9mb5rpia+O+7G/b8vf1u97S657kuoBdtSUILKhHvSV9I++i6VU+sNpYrudrfxdYW3zdaS6wumpL0CUEAAIrVJuC7kcXhjDJsav3OK24DUFg9c5Tx8uPc98P4VIok5I22LdtCAJr73Y6sE1AYO2c66+/3PGlja7NOv+DPl9wzvHe1i0sd1TQ1Yz5GBNYQ7Hp8i+64yYWfR7HGnm2QZvVFWNYBNYwlFxMr61KKP8aUY+bNCp5760HVp8viEhgoUqXoq3rLOUrgF963Ja/dFT9HNIdJLBQXAW0VQk9dlS5hWhS8t7bqtzaruBAYO0N12Hxtm6F3tUVOPchsBoHim6DccVtBwJrcF1CMeuigkt2wqhvjeh4T21UQLOa2w4EVv90fSt0x/KjHjZl/j2tWzpC6NoGbS0fBNbeuXf9dW9pPlbcdhAGaNp29aNtP6u4zUBg9d5jx93CxwFWWG0MuM9qbjMQWL3uFspfa9ch+LMOKiypHmZ9aT/He4lbWLSr7Te6zbAjXA8rjG7h3PJzuXHEpMkERRlrSZYhv589iva+Sbem5OjZ2PL8c+MeBG86HvQ+9/2q6fiSnuYzoTtIYMHuoyOw0r/0py1UWZNcd+fUspOOzPc3bkjHhkam2ZSIRUlAfBc4mYpTvv7dvB44WGt1syrpunVZXaXbCjt0EEBZ/4ejOjgYykZI2uC5oGr5OWmLTYNlS9h8sVQK+YDaF38GmCWwjppUpDrY/s+CavDXAX0mg9wvqbDCcFtQiUiX6qrihy3SqujQEUj7PI5VFLKL5L1LmD1p97BqxXVeso1AlxCJpXm9eYNtKsNZshPeuKosHVOKtAs3Mbud0b62hMnGbO9KEZGlu7nShxzdi11jXFpdOQfbdRuBwIKEUbLDLB1/4UcaZheZLl4aUFHLYbAx3wbI0zEkka1UNkXdrnxXInnuzyXd1ZElcP6aCd5Jw/eYhvhcX3Njvt1RJ868l8uC11k26ZaDwOprt9DVJTnPTGZsM6AuNJg2u7hciuU1Y49wm5iSgfwSaTvOMgHmOlJLd5DAgmPnXWuV5dpx5jUWG2sgPemOmt/RNzXGeXbVPqtMF9gWvBI8hxpoUcUAK2rbG07FIbDgrnjqVlErDah0wNl28rOM0WR3eLn56HLP2ugk970cvbtxVGTpgYfI1BvbkxC85mNJYMFeRchYlnQ/Lj2rp3QcxrdKkp3vLvN9JEcU96XK0qOfkeU9uSqyleP3fe/mfMvYFYGFYjfm7W3Xv6ukkp3oqGYgLvXOzNllSzfxaE/aZmGprpYV3n9sMuNkSVt8Kai8tna3bPjjXMIAqyxTPLtdTtmZN3iJ65aXt63qam4Jl+uWl5d1yqeRwIJ/JVB03tqi7m27tCJZ53582dLlbLoKq5Glm1ypusotr+xI4/2+dJMJLIRC/sK7xk9kB/7UIGTylYl0Ec8DbotzSxe5VnWlbfbJuA9slFW4ILBQo2soO/BDndDSymRlqbKCu+67rlO+ulrVqa60rR5M8fmTpwy0E1ioF1rSLbwpeEqTSZQXlp/dBdgMd57r7mNhisetbrjeFYGFZqF1YYpvqjBPKoe7GsuNzds5WDIAfxVQdXVlCZhlnfElbaN5wVNW2tYgsNDQsSm+OWit0DLfZogH1zV0dAU3daorj7DaaBuDwEILVdami9AqGCf7tMujhpmB8bzK40u+YcW4FYGFdkNrZcqPXkloVRqI1zGbfNdwbHY7nnVn3g6ML6uML0kbSFuY8nMwT3dx4jcIrCGE1r1HaEXm9ejhuGLXcJ372WwX41n6mvkLDK6rdAX1vT+Y8tNvThlkJ7DQbWgtPULr5bLIvnfI0e7QB8t/XW5zFry+lu08yg++XTZ9z0Wn3GTDasknisBCGKGVTi5deC7T1eW828YgvL7GXZMum77XokmhhBWBhR2HVlnlIRf/++ITOrpM24780GVo6bIfLP+19AkW+X09kblstv6GsCKwsNvQKjt6mO0iXpUNyCfLlBCMLdVaJ6GVCav8esW6LkW/O9IxL58uYHo0kLAisLDD0JLuklwexqfbdKnBNS953gfL8loPrYKwWhn7mFr2d+caVD7XDntpI44GElgII7TWWmn5VA9j8zou9UUvaGdbXjrvq7PQKgmr44K7BEXa/bNNfbBZ6vLWfFIILIQTWhvtQl14dBHTbuKDBtfcEVq2MbI0tKIGYRU5wurlaKUtrGQdNagejN/ljl9mxUubMCmUwEK4wXXjqI6Kgksqrmcd4xrnupvHBaE1r7p++juusPquEpJ10XV61orKt7JLq7QbPhH9wiWS+xlaL2M2OiB9ZvxuaiFBJeNBMvdKfv+jeb2Q3Sr5/tgRGBJ007LB8UwAuU6TWWlltdbAlLlUJ6b6jSNebhpBUPXXwa5XIH/jzcxOd8DmaaV9JQAWpv7t6bN348lfDz5f0WwsN1I9yFyHyhZAUlHJxfia3N1G3GsXcM1W7+9+SWAN5wMYaeBEHb1EOuaVP2n5g1ZnXZ1MHWtVFbOV+79f0iUcTjdRdui4w+ByXWHhE0EFAgttBNdZg67irkjX75agIrAwzOAam9eB8KJ7Ie7a2rweBFgyRkVgYdjBJQFwJQ+dzHmiVdeuw2ut1dRHZqiDwIItvNLbu19oeEm3Mb2te9dXIJVBe6n6Hs3reYSEFAgsVA6vlzlN2nWc6ONQAyyqufhYA+pJX2NFVw8EFtruOqbdtO9omJV1IdeEEnobWNIloVuwd2GGHmhynmjXQj6XcMRHB8C+BNaYzQOw74UWWK5u35TPDbAT04r7KoFlujvnDUCxiMBye3SVpdu8xRSAP69XNq64rw4qsIpuZHnGRwjYqsua++owAksvX+tqCLl90zmfIWAr1dV5QXV1H8KlpkM5Snhb8H+LbdzIExh4WMk+tqi5jw4rsNIrBxQ85YHQAjoNq4eCp8ShXM4npHlYFwX/l970YMbHC2g1rGbGflMQ331zq34MZUWe11//8dt4LJdfjRxP+Uvy+I/kOePk8Zg8/1983IDaQTVK9qP/Sb78L923XOSqrv8XynofBNiQD6Z8DlY6UH/L+YZA5e5feqXZstPfpCt4HNL6hxhYRXdYcYWXhNY6eXzlIwm88Yt5Pfo3Mf7n6BbegZvAahZaANoTZFiJIE9+1oaSUnTJZwfYqmWoYRVshZWrtqSv3eV97QDofSWToLoPeSV/DL0Vn9df//7bePy/yZf/1i7iX/hsAa0G1X8nj//chwNYe3V3ZR3bmpvXO7swvgXUJ+GU3jptsy8rvbe3g9fwSu/sIrh+FuCWXmkhNq83/djQJAAAAAAAAAAAAAAAAAAAAAAAAAAAAAAAAAAAAAAAAAAAAAAAAAAAAAAAAAAAAAAAAAAAAAAAAAAAAAAAAAAAAAAAAAAAAAAAAAAAAAAAAAAAAAAAAAAAAAAAAAAAAAAAAAAAAAAAAEBn/l+AAQDYYg8pwc7OxQAAAABJRU5ErkJggg==;fontSize=24;" parent="1" vertex="1">
                    <mxGeometry x="86.75" y="341" width="120" height="120" as="geometry"/>
                </mxCell>
                <mxCell id="41" style="edgeStyle=none;html=1;fontSize=24;" parent="1" source="19" edge="1">
                    <mxGeometry relative="1" as="geometry">
                        <mxPoint x="445" y="495" as="targetPoint"/>
                    </mxGeometry>
                </mxCell>
                <mxCell id="19" value="Cloud Scheduler&#10;(daily execution)" style="editableCssRules=.*;shape=image;verticalLabelPosition=bottom;labelBackgroundColor=none;verticalAlign=top;aspect=fixed;imageAspect=0;image=data:image/svg+xml,PHN2ZyB4bWxucz0iaHR0cDovL3d3dy53My5vcmcvMjAwMC9zdmciIHhtbG5zOnY9Imh0dHBzOi8vdmVjdGEuaW8vbmFubyIgd2lkdGg9IjM2MC4zMDM3NjY4NjA4MzYzIiBoZWlnaHQ9IjM3OC4wNTExNTgwNzc0MDg4IiB2aWV3Qm94PSItMC4wMDAxNjI0MjExNDM2MTM3NTU3IC0wLjAwMDEwMDAwNTk0OTIwNzExNTkyIDk1LjMzMDI2MTIzMDQ2ODc1IDEwMC4wMjYxMDAxNTg2OTE0Ij4mI3hhOzxzdHlsZSB0eXBlPSJ0ZXh0L2NzcyI+JiN4YTsJLnN0MHtmaWxsOiM0Mjg1ZjQ7fSYjeGE7CS5zdDF7ZmlsbDojYWVjYmZhO30mI3hhOwkuc3Qye2ZpbGw6IzY2OWRmNjt9JiN4YTs8L3N0eWxlPiYjeGE7CTxwYXRoIGNsYXNzPSJzdDAiIGQ9Ik03OS45NzEgNzcuNzE1bC03LjM1OSA3LjQ4OCA4LjYzOSA4LjQ5IDcuMzU5LTcuNDg4em0tNjUuMDk2LjA2MWwtOC42NDEgOC40OTIgNy4zNjEgNy40ODggOC42MzktOC40OXoiLz4mI3hhOwk8cGF0aCBjbGFzcz0ic3QxIiBkPSJNNzkuNTUzLjIyMWE1LjI1IDUuMjUgMCAwIDAtMy42NiA4Ljk4NEw4Ni4zODkgMTkuNThhNS4yNSA1LjI1IDAgMCAwIDguOTQxLTMuNzY1IDUuMjUgNS4yNSAwIDAgMC0xLjU2LTMuNzA0TDgzLjI3NSAxLjczOEE1LjI1IDUuMjUgMCAwIDAgNzkuNTUzLjIyMXpNMTUuOTE2IDBhNS4yNSA1LjI1IDAgMCAwLTMuNzIzIDEuNTE2TDEuNjk5IDExLjg5MWE1LjI1IDUuMjUgMCAwIDAtLjA0MyA3LjQyNCA1LjI1IDUuMjUgMCAwIDAgNy40MjQuMDQzTDE5LjU3NiA4Ljk4MkE1LjI1IDUuMjUgMCAwIDAgMTUuOTE2IDB6Ii8+JiN4YTsJPHBhdGggY2xhc3M9InN0MCIgZD0iTTQ4LjEzOCAyNi4yNGMxMy4zNDcgMCAyNS40MzIgMTEuMTM2IDI1LjMxIDI2LjQ4MSAwIDE1LjExLTEyLjI2NyAyNS42NzMtMjUuMTg5IDI1LjY3My0xMS4xNDkgMC0xOC4zMTctNS4xNzEtMjEuOTYtMTAuNzM4bDIxLjgzOS0xNS4wOTd6Ii8+JiN4YTsJPHBhdGggY2xhc3M9InN0MiIgZD0iTTgxLjI1IDkzLjY5M2w0LjY2NCA0LjU4NmE1LjI1IDUuMjUgMCAxIDAgNy4zNjEtNy40OWwtNC42NjYtNC41ODR6TTYuMjM0IDg2LjI2OEwxLjU3IDkwLjg1MWE1LjI1IDUuMjUgMCAwIDAtLjA2NSA3LjQyNCA1LjI1IDUuMjUgMCAwIDAgNy40MjQuMDY0bDQuNjY2LTQuNTg0ek00Ny4zNzEgNS41NzhDMjEuMzQ5IDUuNTc4LjE0NiAyNi43NzkuMTQ2IDUyLjgwMXMyMS4yMDMgNDcuMjI1IDQ3LjIyNSA0Ny4yMjUgNDcuMjI1LTIxLjIwMyA0Ny4yMjUtNDcuMjI1UzczLjM5MyA1LjU3OCA0Ny4zNzEgNS41Nzh6bTAgMTBhMzcuMTUgMzcuMTUgMCAwIDEgMzcuMjI1IDM3LjIyM2MwIDIwLjYxNy0xNi42MDcgMzcuMjI1LTM3LjIyNSAzNy4yMjVTMTAuMTQ2IDczLjQxOCAxMC4xNDYgNTIuODAxYTM3LjE1IDM3LjE1IDAgMCAxIDM3LjIyNS0zNy4yMjN6Ii8+JiN4YTs8L3N2Zz4=;fontSize=24;" parent="1" vertex="1">
                    <mxGeometry x="397.5" y="625" width="95" height="100" as="geometry"/>
                </mxCell>
                <mxCell id="49" style="edgeStyle=none;html=1;entryX=0;entryY=0.5;entryDx=0;entryDy=0;" parent="1" target="2" edge="1">
                    <mxGeometry relative="1" as="geometry">
                        <mxPoint x="495" y="401" as="sourcePoint"/>
                    </mxGeometry>
                </mxCell>
                <mxCell id="50" style="edgeStyle=none;html=1;" parent="1" source="46" edge="1">
                    <mxGeometry relative="1" as="geometry">
                        <mxPoint x="1045" y="490" as="targetPoint"/>
                    </mxGeometry>
                </mxCell>
                <mxCell id="46" value="GitHub Actions&#10;(weekly execution)" style="shape=image;imageAspect=0;aspect=fixed;verticalLabelPosition=bottom;verticalAlign=top;labelBackgroundColor=none;fontSize=24;image=data:image/png,iVBORw0KGgoAAAANSUhEUgAAAgAAAAIACAYAAAD0eNT6AAAABHNCSVQICAgIfAhkiAAAAAlwSFlzAAAQKQAAECkB9XjiDwAAABl0RVh0U29mdHdhcmUAd3d3Lmlua3NjYXBlLm9yZ5vuPBoAACAASURBVHic7d13uCVVlbDxt3M3NLmbDAKi0kQRRaIJRUVFxIQYEB1zxBnTZ0AdVBidkWGcMcyo6GAWHcEEGEYcQRAJkkRaBFFSk2mgc39/rNt0uOmcc6tqVXh/z7OeCw19zzq76uy9TtWuvUGSJEmSJEmSJEmSJEmSJEmSJDXDpOwEJPVtE2BLYANg5lDMGuGfR/qzdf8ZYNFQPNjHP6/5Z/cBtwB3lfaOJRXOAkCqh5nEoL5mbDXCn20JTE/KcTxLiEJg3bh5hD9blJSjpCEWAFI1NgDmAbsO/dyetQf5jfJSS3EPaxcHfwGuBq4a+nlfXmpSN1gASMXajNWD/K5r/PO2mUk10F9ZXRBctcY/35GZlNQmFgDSYLZm7YF+1c+5mUl1wALWLghW/bwpMympiSwApPHNBh4PHDgU+wIbp2akdd0NXAj8eiguABamZiTVnAWANNy2rB7sDwT2AqakZqR+LQcuY3VB8GvitoKkIRYA6rrJwJ6sPeBvn5qRyvIXVhcD/wdcDqxIzUhKZAGgrpkFHMDqwX5/Yoa+uuc+4HxWFwXnEesbSJ1gAaAu2Bx4NnA48DRgvdx0VFMPAOcAZwA/AG7LTUcqlwWA2moeMeA/l5jANzk3HTXMCmIi4feJguDq3HSk4lkAqC2mAAcRg/7hwM656ahl5hOFwBnE/IHluelIE2cBoCbbAHgGMeAfBmyam4464k7gR0Qx8BNctVANZQGgppkLvJAY9J9MfdfFVzcsAX5BFAPfJhYqkiQVZCpxL/97RIe70jBqGEuIc/S5xDkr1ZpXAFRnewDHAi8lZvJLTXEb8FXgS8R6A1LtWACobjYFjgZeCeyTm4pUiN8BpwJfI+YPSLVgAaA6mAI8nRj0DwdmpGYjlWMxMVfgVOAsfJJAySwAlGkXYtB/BbBVbipSpW4GvkIUA3/ITUVdZQGgqs0AXgb8HbBfci5SHfwG+C/gNOIqgVQJCwBVZWPgDcBbgS2Tc5Hq6BbgFOAzxPbGUqksAFS27YC3A68FZifnIjXBQuDzwMnAjcm5SFLf9iDucfrcvmEMFkuIz9AeSFIDPJlYJjW78zSMNsWPiM+WJNXKFGJ53t+S31EaRpvjt8RnbQrSBDkHQBMxi1ip7x3Aw5NzkbrkT8C/ECsNPpicixrKAkCD2ICY2PcWYnMeSTkWAP9GTBh0V0JJpZkGvBm4lfxLoYZhrI5bic/mNCSpQJOAo4D55Hd0hmGMHvOJz6pXdyVN2CHAReR3bIZh9B4XEZ9daVRWiRrN3sCJwKHZiUga2NnAe4BLshNR/UzOTkC1syOxj/nvcPCXmu5Q4rP8VeKzLT3EKwBaZQ7wfmK9/unJuUgq3hJin4ETgNuTc1ENuJiE1gfeDXwTeCKeE1JbTSF24Hw9MJW4MrA0NSOl8gpAd00ituT9CO7OJ3XRLcAHia2IVybnogQWAN20O/A54IDsRCSlOw94HXBFdiKqlpd7u2UW8Y3/y8AOualIqontgNcQ/cN5wLLcdFQVrwB0x6HEBKCdshORVFvXEROBz85OROXzMcD225x4BOgsHPwljW0noq/4KtF3qMW8BdBeqyb5fR/YNzkXSc2yB9F/3IGLCLWWtwDaaR4xye/g7EQkNd6viEmCV2cnomJ5BaBdZgLHA/+Nl/slFeNhxCTBGcD5OEmwNbwC0B6HEJP8HpGdiKTWupaYJPiz7EQ0cU4CbL6Nicf6foqDv6RyPYLoa75M9D1qMK8ANNvBwGnA9tmJSOqcvwAvI+YIqIGcA9BMU4EPAV8ANslNRVJHbQS8guiPfgWsyE1H/fIKQPPsRDyju192IpI05DfAS4mFhNQQzgFolpcBl+LgL6le9iP6ppdlJ6LeeQWgGTYkZvgfnZ2IJI3ja8STAvdmJ6KxWQDU3wHEJf8dkvOQpF5dT9wSOC85D43BSYD1NQX4AHAqsGluKpLUl42BVw798/8BK/NS0Wi8AlBPDyO+9R+YnYgkTdCviasBN2QnorU5CbB+jgIuw8FfUjscSPRpR2UnorVZANTHdOA/ga8Tz9dKUltsRPRt/0n0daoBbwHUwxbAd4kJf5LUZr8GjgRuy06k6ywA8j0G+B9gu+xEJKkiNwLPBS7JTqTLvAWQ68XEDFkHf0ldsh3R970wO5Eu8zHAHJOAE4BTgGnJuUhShmnAC4hx6H9zU+kmbwFUbwNiB7/DsxORpJr4HvBy4P7sRLrEAqBaOwFnALtlJyJJNfN7Yl7A9cl5dIZzAKrzFOBCHPwlaSR7Ar8FnpCdSFc4B6AabyJW9pudnYgk1dh6xI6CtwK/S86l9SwAyjUN+Cyxpr9XWyRpfFOA5wBzgbOBFbnptJdzAMozh1jc5+DsRCSpoX5OPClwV3YibWQBUI5tgXOAXbITkaSGuwJ4GnBLdiJtYwFQvJ2BnxI7+kmSJu5PwFPxCYFCeV+6WHsSq1s5+EtScR5O9K3zshNpEwuA4uxHrGa1RXIektRG2wDnAvtkJ9IWFgDFeCpx2X+T7EQkqcXmEBMDXSugABYAE3cE8ANg/exEJKkDNgR+AhyWnUjTWQBMzCuA7wAzshORpA6ZRWyj/uLsRJrMhYAG92bgc1hESVKGKcCRwM3Axcm5NJIFwGDeD3wCH6OUpEyTiFUDHwDOS86lcSwA+vdJ4H3ZSUiSHvI0YDoxQVA9sgDo3WTg88Slf0lSvRxM7B/w4+xEmsICoDeTgC8Cr8pORJI0qn2BLYknszQOC4DefAp4fXYSkqRxPZbYVvin2YnUnQXA+I4H3pOdhCSpZwcCS4jlgzUKC4CxvQ04MTsJSVLfDgFuAy7KTqSuLABGdwzwGXzUT5Ka6jBgPnB5diJ15OA2sucB38YCSZKabhmxYNCZ2YnUjQXAcE8lZpC6vK8ktcMi4mrAL7ITqRMLgLXtR8wcdWMfSWqXhcS8gAuzE6kLC4DV9gB+iVv6SlJb3Qk8EbgiO5E6sAAIDyceF9kyOxFJUqluBg4CrstOJJsFAGxDDP47JOchSarGn4ki4KbsRDJ1fSvbzYCzcfCXpC7ZETiHGAM6q8sFwAzisZBdsxORJFVuV2IM6OwTX11+zv2/iH2kJUndtB2wLfD97EQydLUAeAfw7uwkJEnpHg3cB5yfnUjVujgJ8OnAD+lu8SNJWtty4FnAWdmJVKlrBcAjgQuAjbMTkSTVyt3A44E/ZidSlS5NAtwYOAMHf0nScJ0bI7pSAEwBvgE8KjsRSVJtPYoYKzpxi7gTbxL4JPDy7CQkSbW3MzCbWCOm1bpQALwSOCk7CUlSY+wP3ABcmp1Imdo+CXB/YvvHzi70IEkayGLgybT48cA2FwDbAr/FDX4kSYO5BXgc8NfsRMrQ1kmAs4iVnRz8JUmD2pIYS2ZlJ1KGthYAXwIek52EJKnxHkOMKa3TxkmAbwTelZ2EJKk1dgcWELeVW6NtcwB2Iw5QKy/XSJLSPEjMB7gyO5GitOkWwAzgazj4S5KKN4sYY1rzVFmbbgH8M/Dc7CQkSa21BbAB8JPsRIrQllsAzyR2+GvL+5Ek1dNKYufAH2cnMlFtGDA3By4f+qmx3Qb8YSj+SNwC2hTYbOjnqn/eZuinpOa7F/gd8Bdi3/tVsXDo50xiktvuwB5EP6Cx3Ua01W3ZiUxEGwqAHxFXADS6o4lq9e4+/s4jgAPXiF1ox/kitdkS4PfAhWvEH4hvrb3aGvg48IrCs2uXHwOHZScxEU3v0N8K/Gt2EjV3A7Aj/XUAI9kUOGAongHsPcHfJ6kYfwFOB75LPAW1uIDfuS9wQQG/p+3eBpySncSgmlwA7ElUt62ZkVmSk4D3lPB7HwUcBbwEt1mWqvYnYtD/DuU9m/5H4kqgRreYKJZ+n51Il8wEriC+1Rpjx6MHbON+7E0UGjckvD/D6EpcA5xANZ9pgA+V/H7aElcQY5Iq8u/kH/QmxNWDNvCAJhHzBf4NuGOCuRuGAcuIb/pPonqP6DPXLse/D9jG6tNzyD/YTYnjB2zjIswCXgVcMkJehmGMHQuAjwHbkesC8tuiKfGcAdtYPdqS+GBkH+imRF3uzR8IfIOYoZzdJoZR5/gd8Erqc0n5reS3SVNiAe5AW6ofk3+QmxIXD9jGZdoa+DBwM/ntYxh1iSXEErMHUD9bELchstuoKdH4xYHq6mjyD26Tos47Ik4njuf55LeTYWTFzcREu62ot5+Q31ZNiqMHa2aNZhPgVvIPbJPiYQO1dPX2AU4FFpHfZoZRRZxHDBLTaIZjyG+zJsWtxJilgvwn+Qe1SfGHwZo51RzgvcSiJtntZxhFxyKi0N2H5tkCWEF+GzYp/nOgltYwB+PJ1298eqCWrocpwJHAueS3o2FMNJYDX6E5V+RGcyn5bdmkWEGMXZqA6cCV5B/MpsURgzR2DT0V+A357WkYg8SPgb1oh0+Q355NiyuJMUwDej/5B7FpsQzYaJDGrrFn43oCRnPiIuAptMvTyG/XJsb7B2lsxSpUD5J/AJsWvxmksRtgEvBC4Cry29gwRor5wItp9h4ro5mJ/fEg8SA13k9hcnYCY/gM9VkMo0l+mp1ASVYC3yb2LH8FcF1uOtJDFhAL5swDvkmcq22ziJiXo/7MJMYy9eHl5FduTY0n9d/cjTQVeC0+NWDkxULgI8AGdMM/kN/mTY2XD9DenbQZLvc7aNxP9yadzCD25L6L/PZvSiwnzpXbh+L+oT/LzqspsRT4LN1b9nVP8tu+qbGAGNtqpY73qr4IHJudREOdAxyanUSSLYFTiHkCbbQUuAW4aShuHoqFxH3GVbFonX8f6c+WjPIa04lNnFbFzHX+faQ/m02sZLcVsdTz1sSxaMoiN/06E3gnsTVvF90KbJ6dREN9idggrTbqVgA8Efjf7CQa7CTgPdlJJHs28B/k76LWq2VEp7rmwH7TOnEzq6+KNcEkYC5rFwWrYs0/24K4ldMENxH3+U/PTiTZj4BnZifRYE8CfpmdRB3NIFawy75U0+R4ad+t3k6zgX+lXpe17wZ+DXyeGEgOIQbBOk/ELdtkog0OIdrk80Qb3U3+8VoVK4iCsm2P1g7q4+QfkybHH4ixTus4nvyD0/TYo+9Wb7d9gcuo9hjcR+yh/kXgHcDTgW3LfqMttC3Rdu8g2vICom2rPJZXUM8d+jIdRX4/1/Q4vu9WL0ldbgFsDVwLrJedSIMtJb75jnZ/t6umErOXP0jcsy7KCmKAuGzo55VDcQPxIVfxJhFL6u42FLsTK+3tTrFXUhYBHyVuqS0t8Pe2wTxiLQ4N7gFgZ+LWnohLf9lVWdPj8r5bvVseTqyRMGj7LiW+hX6CmGewcbXpawwbE8fkE8QxWsrgx/nnwCOrTb9RpuCCQEXE5/pt+LaaR0yEyj4gTY+v9dvwHXUM8ejbeO25GPgV8U3wUOLqipphNnHMPkocw8WMf7zvwKePevVb8vu7pscyYJd+G76N/of8g9GGeG+/Dd9hc4HTWLv97gd+RtwqeBKuQtkmM4lj+kHiGN/P2sf+q8Q5od78F/n9XRviu/02fNscSP5BaEs8q8+2V0wyew8x0autz61ruGnEMX8PcQ6oP28hv79rS+zfZ9u3yq/JPwBtiR37bHtJGsRTyO/v2hKp+ytkPoN8BD5iU6RbsxOQ1AnOXi/OwcQE1hRZjwFOIR6dchJEMe7HSWqSqrEpMWlSxbiS2GdhRdUvnHUF4NU4+BdpQXYCkjrjLmIWu4qxG/F0UuUyrgCsB8wn1gRXMX5LrHonSVW4CfvwIv0VeASxCFVlMq4AHIcnTtFuy05AUqfY5xRrW+LpikpVXQDMAd5V8Wt2gbcAJFXJScfFey+wSZUvWHUB8AFgw4pfswssACRVySsAxduEihd0q7IA2Al4fYWv1yV+GCVVyT6nHG8BtqvqxaosAP4RmF7h63XJ/dkJSOqUhdkJtNRM4ENVvVhVBcCOwIsreq0umpqdgKROmZKdQIu9nJgUWLqqCoB34AlTJgsASVXKXEW27aYBb6vihao4iJsBr6rgdbrMAkBSlfxCV67XAhuV/SJVFABvIhb/UXn8MEqqkn1OuTYEXlf2i5RdAMwC3lzya8grAJKqZQFQvrdR8sT5sguAY4C5Jb+GLAAkVcsCoHxbA0eX+QJlFgCTgb8v8fdrNQsASVWyAKjGP1Dinj1lFgDPA3Yu8fdrtZnZCUjqFNd0qcZuwGFl/fIyC4B3lvi7tbZKnhmVpCHbZCfQIaWNpWUVAAcDjy/pd2u4h2UnIKlTKluuVjwReFwZv7isAsBv/9XaITsBSZ2yfXYCHVPKmFrG5IJ5wJUl/W6NbCXxyOXi7EQktd6GwD3ZSXTMcuBRwJ+K/KVlXAEoddaiRjQJK3JJ1bCvqd4UYkn9QhVdAGwFvKzg36ne7JCdgKRO8P5/jmOBOUX+wqILgLfi4yFZnAgoqQoWADlmEUvrF6bIAmAa8OoCf5/6s2N2ApI6YYfsBDrsNRS4CFORBcCzcNnfTPtmJyCpE0p5JE092QZ4WlG/rMgCwC1/cz0el+eUVK4puMZLtsLG2qJm628B/BXXpM+2N3BpdhKSWuvRwCXZSXTcYmKjoDsn+ouKugLwchz86+CA7AQktZp9TL4ZFLRLYFEFwLEF/R5NjB9OSWWyj6mHQsbcIgqAfYFdC/g9mrgDsxOQ1Gr2MfXwGGDPif6SIgoAv/3Xxw7EYkySVLSt8BHAOpnw2DvRAmAm8JKJJqFCPSE7AUmtZN9SLy8j1t8Z2EQLgCOBjSb4O1Ss52cnIKmV7FvqZQ7wnIn8gokWAF7+r59nA7Ozk5DUKrOJvkX1MqExeCIFwPbAUyby4irFLOC52UlIapXnEn2L6uUZwJaD/uWJFADHTPDvqzzOy5BUJPuUeppKrMMzkEFXApwEzAd2GvSFVaqlRFU44ZWiJHXepsAtTHDCmUpzNQM+ij/oN/gn4OBfZ9Nwwo6kYjwfB/86m8eA+zMMWgC8YsC/p+oclZ2ApFawL6m/gcbkQQqAyUzw0QNVwp0BJRXBvqT+Bpr4PUgBsB8wd5AXU2X+hLcAJBXjBcB12UloTNsA+/T7lwYpAPz2X293Ac8C7shORFIr3E70KXdnJ6IxHd7vXxikAOj7RVSZpUS1fk12IpJa5Q/AC4Fl2YloVKWPzTsBK43axqtHP3SSNGGvJ7+fM0aP7UY/dMP1ewXAy//19U/AF7KTkNRqnwVOzk5Coyr1KsDPyK9wjOHxXQZf1EmS+jEZ+AH5/Z4xPM4a47gN08+gsRGwABeEqJvLgAOAB7ITkdQZs4ELGHAFOpVmCbFL4H29/M/93AJ4Jg7+dbMIOBoHf0nVWgi8lBhwVB/Tgaf3+j/3UwB4/79+3g1clZ2EpE66FPhAdhIapud5AL3eApgK3AZsMlA6KsM5RKW3MjsRSZ01GfgFsT+M6uFOYHNg+Xj/Y69XAA7Cwb9O7gReiYO/pFwriHXo78lORA/ZFDiwl/+x1wLAxX/q5XXATdlJSBJwA/Dm7CS0lkLH7GvJf7zBiPjyOMdKkjJ8k/z+0Yj44zjHCuhtDsA8nGhWF9cDewH3JuchSevaBLic2JhG+eYRSziPqpdbAM8sJhcV4HU4+Euqp7uAN2YnoYccNt7/0EsBcFABiWjifgScnZ2EJI3hDODn2UkI6GHs7uUWwK3EIwXKswzYE7g6OxFJGsdewMUMttusinMbsMVY/8N4B2hnHPzr4PM4+EtqhsuAU7OTEJsTY/ioxisAenqWUKW6Bzg+OwlJ6sP7iOWClWvMMXy8AsD7//lOAG7PTkKS+nALcFJ2Ehp7DB9vDsBVxKMEynEd0f5uuCGpaWYB1wDbZSfSYVczxo6NY10B2BTYpfB01I934eAvqZkeBN6bnUTH7UKM5SMaqwA4gN43C1LxLgZOz05Ckibga8AV2Ul02CRiLB/RWAWAEwBzfSo7AUmaoJXAydlJdNyoY/lYBYATAPPcTKyrLUlN91VgQXYSHTbqWD5aATAdeGw5uagH/wEszU5CkgqwiOjTlOOxxJg+zGgFwD7AzNLS0VgWAZ/NTkKSCvQZYHF2Eh01kxjThxmtAPD+f57T8Ll/Se1yKzEhUDlGHNMtAOrHCTOS2siJzXksABrgHODK7CQkqQSXAz/NTqKjei4AdgbmlpuLRnFKdgKSVCL7uBxzGWFjoJEKgN3Lz0UjuAs4KzsJSSrRT4i+TtUbNraPVAC49n+O7+Ojf5LabSnR16l6w8b2kQqAUTcOUKm+k52AJFXAvi7HsLHdKwD1cA8xAVCS2u4cos9Ttca9AjAJdwDMcCbu+iepG5YQfZ6qtQvrbPC3bgGwPbB+ZeloFS+JSeoS+7zqrU+M8Q9ZtwDw/n/17sPZ/5K65Syi71O11hrjLQDy/YBY/1+SumIR0fepWmMWAE4ArN4Z2QlIUgL7vuqtNcZ7BSDfr7MTkKQE9n3VW2uMn7TOf7wL2Li6XDrvr8B22UlIUpIbgW2zk+iQu4FNVv3LmlcAtsLBv2rnZScgSYnsA6u1MTHWA2sXAN7/r9752QlIUiL7wOo9NNavWQB4/796Vr+Susw+sHoPjfVeAcizCLgkOwlJSnQJPgZdNa8A1MBFuPufpG5bSvSFqs6IVwB2Skiky7z0JUn2hVV7aKxfswDYMiGRLrswOwFJqgH7wmo9NNavKgA2A6bn5NJZ12YnIEk1MD87gY6ZToz5DxUAfvuv3p+zE5CkGrAvrN6WsLoA2GqM/1HFux13wpIkgHuBO7OT6JitwAIgy3XZCUhSjVyfnUDHrFUAeAugWl7ykqTV7BOr5S2ARF4BkKTVLACq5RWARBYAkrSaBUC1vAKQyJNdkla7PjuBjnESYCKvAEjSan4pqpa3ABLdlp2AJNXIrdkJdMyWAJOAWcADubl0ykpgytBPSRLMwF0Bq7beZPz2X7VFOPhL0poWA8uyk+iYLSfj/f+q3Z+dgCTVkH1jtbayAKieJ7kkDWffWK2tvAVQPedbSNJwC7MT6JgtJwMbZ2fRMVa5kjScfWO1Np4MzMzOomO8AiBJw1kAVGumBUD1PMklaThvAVTLAiCBVwAkaTi/HFXLAkCSpA6yAEhge0vScPaN1bIASDArOwFJqiH7xmpZACSwvSVpOPvGalkAJLC9JWk4+8ZqzZxM7MKk6niSS9Jw9o3VmuEVgOrZ3pI0nH1jtbwFkMD2lqTh7BurZQGQwJmukjScY1G1LAAS2N6SNJx9Y7UsABI46VKShnMsqpYFQILJwPTsJCSpRqYTfaOqYwGQxDaXpNXsE6s3czIwJTuLDnIioCStZp9YvSmTgQezs+igzbMTkKQamZudQAc9YAGQY6vsBCSpRuwTq/fgZOCB7Cw6aOvsBCSpRuwTq+cVgCRWu5K0mn1i9SwAkniyS9JqXgGonrcAkniyS9JqfimqnlcAkniyS9Jq9onVswBI4skuSat5VbR6D1oA5LAAkKTV7BOr94BzAHLMBDbJTkKSamBjXAo4g7cAElnxSpKX/7N4CyCRJ70k+WUoi7cAEm2TnYAk1YB9YQ5vASSal52AJNWAfWEObwEk2iM7AUmqAfvCHN4CSLRndgKSVAO7ZyfQUd4CSLQt8fiLJHXVhsDDspPoKAuAZF76ktRlfvvP4xyAZBYAkrrMPjCPcwCSefJL6jL7wDwPTAYWZGfRYZ78krrMPjDPgknEmvR3ZmfSUffgREBJ3XUHsGl2Eh21/mTgLmBhdiYdtRGwfXYSkpRgGxz8s9zB0C0AgBszM+k4L4FJ6iKfAMhzI8CqAuAviYl03V7ZCUhSAhdDy7NWAeAVgDxPzE5AkhIcnJ1Ah1kA1MTBwIzsJCSpQlOBJ2Un0WHeAqiJWcCB2UlIUoX2BTbITqLDvAJQI0/NTkCSKnRIdgId5xWAGrEAkNQl9nm5bgSYNPQvs3BJ4EwrgDnEmgyS1GbrE4vPTc9OpKNWAjOBJauuADyISwJnmgw8JTsJSarAwTj4Z7oVWAKrbwGA8wCyeUlMUhfY1+V6aKy3AKgPPxSSusC+LteIBYATAXPtDOyQnYQklWgurgCYzSsANWVlLKnNnsLqyefK4RWAmnpedgKSVKLnZCcgrwDU1aHEJTJJapv1gCOyk5AFQF1NBV6UnYQkleC5xBoAyjViAXATsLz6XLSOl2YnIEklODo7AbEcuHnVv0xe5z/MrzwdrWt/YMfsJCSpQJsBT89OQsxnjS/6k9f5jxdXm4tGYaUsqU1eAEzLTkJrj/HrFgCXVJiIRudtAElt4peaelhrjPcKQD3NA/bOTkKSCrAdsf6/8o15BcACoD68CiCpDV6Ci//UxZgFwF3A9ZWlorEcxfDjI0lN4+X/eriedbacH2mA8SpAPWxDLAwkSU21J7BXdhICRhjbLQDq7bjsBCRpAuzD6qOnAsAnAerjUGD37CQkaQBb4eX/Ohk2tnsFoP6soCU10VuA6dlJ6CHDxvbRZmbeRFRvyrcY2B64LTsRSerR+sSa85tkJyIglv/det0/HG2WuVcB6mMG8MbsJCSpD6/Cwb9ORhzTLQCa4Y3AzOwkJKkHU4C3ZyehtfRVADgRsF7mAi/LTkKSevA8YKfsJLSWEcf00eYAPAwXBKqbq4gnAlZmJyJJYzgf2C87Ca1lB+CGdf9wtCsANwB3lpmN+rYrcFh2EpI0hoNw8K+bOxlh8Iexl5p1HkD9nETcX5OkOjoxOwENM+pYbgHQLLsBr8lOQpJG8ELgwOwkNMxABYATAevpw8CG2UlI0hpmAP+UnYRGNOpYPlYBcFEJiWjiNgf+X3YSkrSGtxMTzVQ/o47l4+3RfAOxCp3qZTGwCz6pISnf5sB8YIPsRDTMX4in+kY03n7zPyk2FxVkBk62kVQP/4iDf12NOYaPVwCcVWAiKtaLgf2zk5DUaXsAr85OQqMaswAY7xbAhsAdwNTC0lGRfkPMul2RnYikTjoHeGp2fRM5ZAAAGCFJREFUEhrRMmAz4N7R/ofxrgDcS6zqpHraD/j77CQkddKrcPCvs/MZY/CH8QsA8DZA3Z0A7J2dhKROeRRwSnYSGtO4c/h6KQCcCFhv04GvArOyE5HUCdOBrwPrZyeiMRVSAFwMLJh4LirRPOCfs5OQ1Akn4lXHuruNHhbz66UAWAmcPeF0VLY3AM/OTkJSqz2DWPRH9XY2Pewc20sBAN4GaIovAFtkJyGplbYAvsz4T48pX09jdq8FQE/VhNJtDnwxOwlJrTOJGPw3z05E4+r5qn2vBUBP9xNUC4cBH8tOQlKrfBR4enYS6snv6HHeXq8FAHgboEneC7w+OwlJrfA2ok9RM5Ty6P7BxKUFoxmxDHjOiEdSknpzNLHSaHZ/ZvQeB414JEfQz2SOqcSywO5F3xwPAE8GLsxORFLjPB04E5iWnYh6dg8wh/gCOK5+bgEsA342SEZKsx7wA+Dh2YlIapR9gdNx8G+an9Lj4A/9FQDgPIAmmksctznZiUhqhF2AH+FKf03U1xjdbwHgvgDNtDPwY2JnKEkazc5EP29f0Ux9jdH9FgA3AFf3+XdUD48FfgVsl52IpFp6LHAesH12IhrIlcCN/fyFfgsAgG8M8HdUD/OAXxOX+CRplUOBXxC3DNVMX6viRXbAx0KaHrcTk3wk6WhgCfn9kjF4rKDCKze/rOANGeXGfcDT1j2wkjrlHfiFrg0x0BN6g9wCgFgTWs02m3hE8EXZiUiq3CTgE8Q24m7u03yVjskbEIvMZFc9xsRjOfABBi8GJTXLhsC3ye97jGLiPgZ8ZHPQTv8+4HsD/l3Vy2TgI8Tzo+70JbXbY4CLgRdkJ6LCnA7cP8hfnMi3Pm8DtMvTgEuBJ2YnIqkUbyIe83Nl0Hb5SsaLTgb+Rv7lD6PYWAa8D+8LSm2xEV7yb2vcwAT66olcAVgBnDaBv696mgKcQKwc6DPBUrM9Fi/5t9l/E4VAit3Ir4CM8uJvxI5gkpplCvAPwGLy+xGjvHgkyS4ivxGMcuObwFZIaoL9ifk82f2GUW6cxwQV8ehXygQEVepFwB+ISUQ+LijV06bA54nlvvdKzkXlq8XYOweXkexSXEg8SiSpHiYBrwQWkN8/GNXEImBjJqiIb3O3ExPG1A2PI4qAk4kFoSTl2Y1Ymv1LxJcxdcMZwN3ZSaxyJPkVkVF9/BX4O2Aqkqq0BXAKsJT8fsCoPp5FjUwH7iC/UYyc+CPwElw7QCrbJsDHiZXfsj/3Rk7cQkFfuoqa0LUE+EZBv0vN8whiL+pLgcOTc5HaaDbwfuDPwHuA9XLTUaKvEgu21cq+5FdGRj3iN8AhSJqomcBxwG3kf66NekRtn/C4jPzGMeoTPweeiqR+rQe8GbiR/M+xUZ+4gBo7mvwGqiqWEo9iZOfRhLgUeDkwDUlj2RL4KM6pMkaO51OgoidtTQWuBXYo+PdmuRY4k/gmeztwD3Dv0M/7ifbbhliO8VHr/NwJJ8Wt62/EzOXPU6NHWKQa2B14B/BSYlK1tK5rgV2IfXhq683kV0kTjc8RA/lEPAx4L3BFDd5P3eI+Yh2BHQZtXKklnkqso5L9mTTqH6+hAWbR7Akr/1R8k/Bo4BPEc/PZ769OsYzo/F4EzBi4daVm2Rp4N7G8dvZn0GhG3EyD+sgPkN9gg8SdZTTGGiYDTyEemVuR/F7rFncAnwb2Gbh1pfqaTmzJ+0Oi8M3+vBnNinfTIJsSl3mzG63feLCMxhjFfsBvS3ofTY/fE48+zR24daV62JuY93I7+Z8ro5lxD7ARDfMv5DfcILFnGY0xisnAq4FbS3gfbYhlwLnAO4nJL1LdTSOu8n0K+BP5nyGj+XESDbQtzdwl8AKq3/J2I6LDcF3vseOPwD8DT8L9B1QfmxCPQH+deLol+3NitCcWA1vRUKeS34CDxNtLaIte7Aqc02OOXY87gdOJqwMH49Koqs5WwBHAicQVKgt3o6z4L0pU9nPquxKPwTXtefj7iedyr096/ecRt1B2SHr9JloGXE5cwfnNUPyR+BBJg5pJTEx9PDFv5/HA9qkZqStWEGPoNWW9QBUD8/dp5gYxZwHPSHz9DYEvEDOHNZi7iYJgVVFwAeU/6aFmewRrD/Z74QqWyvE94MgyX6CKAmB/4LwKXqcMnwfeQO7KS28n1iawEyrGtawuBi4e+vfbUzNShinAdsTk0n2JAX9fYLPMpKQ17EfJa/9XdWn+XOI+bRN9h1iec0liDgcA3yQmVqp49wLziVnb6/78G95GaKoZwI7Aw4Gd1/m5IxbVqq9fEpOdS1VVAfAs4AcVvVYZfkrcl1+YmMNc4LvAQYk5dNEi4DpGLhBuoIb7cnfMbIYP7qt+bkv1T/RIRTiMWCW1FSYRi7tkz6icSFwIzCm6Yfq0Hj4lUKdYSpwXjVukowWeQCyPmn0OGEbRcRkt9DLyG3ai8Rei48k0k7iakt0WBjxAzHFRjtfiktpG++KltNBU4rG67MadaCwHPk7uc+fTiLkJ2W3R5VgGPHu8A6XSvQaLAKM9cT0tXuTsdeQ3cFHxN+BY8u4xTiEmBma3Q1fjVeMfIlXk1VgEGO2I19FiU4jFWrIbuci4jLyJeTOAX/eQo1FsvK+Xg6NKvY3888IwJhKXE2Nkqx1KfkMXHUuBfyiykfowF/hzDzkaxcSnezssSvAN8s8Pwxg0DqUjfkh+Y5cR3wE2KLCderUbsWVk9vtve3wbHyurs9nA1eSfJ4bRb/yQDplHezfQ+AOxyEjVnkFMTMt+/22Nm4jlmVVvuxHrdWSfL4bRaywlxsTKZd1vuB3YnFh6s23mEOs3n0m1687PH/r55Apfs0veAFyUnYTGtYB4XLfUNdSlAv0H8JXsJKq2GXAX+dVXWfE3Yp3xKk0FLikgd2Pt+GU/B0G10NbbjEa74i46vP/EceQfgDLjFmJb4SrtRexbkP3e2xJLgT36OgKqg0cAi8k/fwxjrDiODptG7MaWfRDKjJuAbYpqsB59qIC8jYiT+2t61cjHyT9/DGO0uBY3pOII8g9E2XEx1a4cOI1YnyD7fTc9bsGJf022PvBX8s8jwxgpjkAA/Jz8g1F2fJfqdl8E2AefCphovLzvVlfdHE3+eWQY68bP0UMeTayxn31Qyo6PFdVgPfpUgbl3Lf5vgPZW/UwiHs3NPp8MY1UsJ8Y8reEL5B+YKuL5RTVYD2YTj0Rlv+cmxvMGaG/V05vIP58MY1V8gZqo8pL0eLYkJkXMzk6kZHcQs8pvruj1Dge+X9FrtcXtwNbEEwBqvtnEXICNshNR5y0knlC5JTsRqNeyprcAJ2YnUYHNgC9W+HpnAN+r8PXa4Os4+LfJQqr9zEmjOZGaDP51NBO4gfxLNFXEGwtqs15sA9xb0vtoYzxmsGZWje1EN+YZGfWNG4gxTmN4CfkHqoq4H3hUQW3WC++D9haXD9rAqj1XBzQy4yVoXJOA88k/WFXEhcTyvVX5Vknvo02Rta2zyncs+eeX0c04n3rNuau13YBF5B+0KuLDBbVZL9YHrijpfbQhlhGTUdVOm+NtAKP6WESMaerDu8g/cFXEMuDxBbVZL3am3ZswTSQ6tSd3R51H/nlmdCvehfo2me58WP9IfDuvyrOAFSW8j6bHCyfSqGqE95B/nhndifOo19N2jfJI4AHyD2IVcVJBbdarDxaYextiOe1fg0JxKTb7XDO6EQ8QY5gm4G3kH8iqTpYqdw2cBJxWwvtoalw5seZUg1xH/vlmtD/eRs014dLEKcAvs5OowCzg+ApfbyVwDPDVCl+zzn6XnYAq4z4PKtsvibGr1ppQAKwkHt9ZmJ1IBY6l2ktGy7EIWOWi7ARUmd9mJ6BWW8jqR05rrQkFAMCfgXdmJ1GBqcAJFb+mRUCwAOgOj7XK9E5izFLBzib/vk7ZsQLYp6gG68MUujsnYBmw3sSbUA0xi9jrIfu8M9oXZ6PSbAfcTf5BbutJNAX4GN17RNDlf7vnUvLPO6NdcTcxRjVGU24BrHIjcFx2EhV4GvCUhNddDvw/4DnEYkFd4SXh7vGYq2jHEWNUYzStAAD4Et1Ysa3KJYLX9UNiR7yudJI+AdA9F2cnoFb5ITE2NUoTCwCA1wB3ZidRsoPImQuwyvVDOXw2MYeqdKXQ0Wo3ZCeg1riTGJMap6kFwM3AW7KTqED2QhKLgTcQSwdfk5xLWS4CLstOQpVr1KVa1dpbiDFJFTud/IkfZcZi6rM73TTg7bRjI6F7iSsbexfaQmqSTck/D43mx+kozVzgNvJPgjIjcy7ASOYAnyEenctum37jIuJSnWv+C+B+8s9Jo7lxGzEGKdGR5J8IZcatwIzCWqs4uxLfou8jv43GiquAk8mdT6F6uob889NobhyJauFk8k+GMuOY4pqqcBsCbyI208lup5VEwfRV4JVUu7mSmuen5J+vRjPjZFQbU4FzyT8pyopLimuqUj0R+HfgCqpZTOhe4nGubxHLbz6a2OVQ6sWp5H+2jebFucSY03ht6iy3IAaDrbMTKcnBNGsXsznAE4iiYH/iuMyht9sZK4jtkVfFXcB84Np1ft5SeNbqklPoxtNEKs5NxBopt2YnUoRWVDFDbgVeAPwvMD03lVK8iWYVALcD3x2KNW1AFAJziCcLHhghFlWXpjrswewE1ChLiDGmFYN/W72B/EtEZcQS6vNIoNQGHyb/c200J95AyzR1IaCxfAb4cnYSJZgGvDY7CalFvNKkXn2ZGFtapY0FAMDraeda36+jXbdtpEwWAOrFxcSY0jptLQAWEc9o3pGdSMG2Bp6XnYTUEhYAGs8dxFjSynOlrQUAxGYfLyFmlLfJh4jbAZImxkmAGssKYgxp7cZRU7ITKNl1wFLgkOxECjSXWH3vvOxEpIabBzw/OwnV1vto53yyTplEPIqWPYO0yFgIbFdkI0kddBT5n2WjnvFd2rVOzojafAtglZXEUrpt2s52feBT2UlIUgtdQ4wZK7MTKVsXCgCIS+bPG/rZFs8HnpGdhCS1SBvHilF1pQAAuBo4NjuJgv07sEl2EpLUEscSY0UndKkAADgdOCk7iQLtBHwb1waQpIk6iRgj1GJTgHPIn2RSZHy20BaSusFJgMaqOIf2PxU3TNeuAAAsJzZ0uDQ7kQK9DnhrdhKS1ECXEmPC8uxEqtbFAgDgHmIC3Z+yEynQv+CkQEnqx5+IfvOe7EQydLUAgNjS8VDas6f8FOBbwJOzE5GkBriFGAM6u71vlwsAiJUC21T9bQD8BDg6OxFJqrFVV4Gvy04kU9cLAIDLgMNpz2YP04HTgHdnJyJJNbSI6PMvy04kmwVAOBd4Me2ZBDIJOJFYJ8BjLElhOdHXn5udiOrnWPIfRyk6zgTmFNlIUkv4GGD3om2Lwalg7yL/JC06biWWt5S0mgVAt+JdSD34JPknaxlxGi4dLK1iAdCd+CRSjyYBp5J/0pYRNwHPKqylpOayAOhGnEoHtvZVsaYS98+zT96y4ofA3oW1ltQ8FgDtjzNxrxQNaBbwK/JP4rJiBbF40C5FNZjUIBYA7Y5fEX24NLCNgd+TfzKXGcuIy2QPL6bJpEawAGhv/J7ouzUGnxEf393A04E/ZydSoinAMcC1wM+AlwHrpWYkSYP5M9Fn352diNpjZ2ICXXZlW1XcA3we2L+IxpNqyCsA7Yu/EX21VLidiN2jsk/yquMmYq7AW4BH45UjtYMFQLviT8COqGc+GtG/rYBzgN2yE0l0D3AecAlx22D+0M8m7Ko1B9hjjfgS8V7UPUcBX89OQoW4gtjZ7+bsRJrExyP6dzPwBODHwL7JuWTZCHjmUKzpPlYXA9eu88+3VZjfbGC7odgemMfqAX/Ldf7fH1eYl6TiXQAcBtyZnUjTWAAM5k7gEOD7wFOSc6mTDYi1BUZaX+A+YAFx9eAe4N41/nmkf18MTBuK6WP8XA/YhtUD/nb0N/vXq2BSc/0MOAJYmJ1IE1kADG4hUXV+E3huci5NsMFQ1I3zGaRm+h7wEuLLggZg5zcxi4EXAP+dnYgG5hUAqXlOBV6Ig/+EWABM3DLiGfpPZyeigfgZkJrlZOBVwPLsRJrOzq8YK4lH5E7ITkR98zMgNcfxwHFEn6sJsvMr1geAv89OQn3xFoBUfyuBtwIfyU6kTSwAivcvwKvx8lRT+BmQ6m3VbdZ/y06kbez8yvFFYpGRJdmJaFxeAZDqy4nWJbIAKM93gMOBB7IT0Zj8DEj1tJBYbOz72Ym0lZ1fuc4Cnoa7UtWZnwGpfu4gFln7RXYibWbnV77zgAOJ5XBVP94CkOrlKmIX0t9mJ9J2FgDVuAp4HPCD7EQ0jJ8BqT6+CzwevzBVws6vOvcQcwI+gs+w1omfASnfCuD9xIQ/1/WviJ1ftVYSC1kcQWx+o3zeApBy3Q08G/gofjmqlAVAjjOIrYT/kJ2I/AxIia4gbo+6LXcCO7881xBFwP9kJ9JxXgGQcnyHmOw3PzuRrrIAyHUfcCSxhPCK5Fy6ys+AVK0VwHuJ3fy835/Izi/fSmIToefgegEZ/AxI1bkLOAw4MTsR2fnVyY+Ie2FXZCfSMd4CkKpxOfBYYoE01YAFQL3MB/YDvp2dSIf4GZDK9y3ifv912YloNTu/+rkfeBHwHpwXUAU/A1J5lgPvAl5M9G2qETu/+joJeAZwZ3YiLectAKkcdxKb+XwiOxGNzAKg3s4B9gF+lZ1Ii/kZkIp3LtF3nZOdiEZn51d/1wNPAo4DHkzNpJ28AiAV50Hg7USfdX1qJhqXBUAzrABOBh4NnJ+cS9v4GZCKcR6wF/CvuKRvI9j5NcsfgYOBdwOLk3NpCz8D0sQsAt5J9E3u4tcgdn7Nsxz4J+AxwEXJubSBtwCkwV0I7A18Ep9aahwLgOa6iniu9gPA0uRcmszPgNS/xcRyvgfgpmaNZefXbMuIZYQfB1yWnEtT+RmQ+vM7Yob/icQVSTWUnV87XEYUAf9IFAXqnZ8BqTdLgQ8Sq5VemZyLCmDn1x5+OAfjZ0Aa36X4JaN17PzaZ9XluZPw8lwv/AxIo1sGfATYF28zto6dXzstJvYSOAi4JjmXupuSnYBUU1cAjweOx4nGrWQB0G6/IR7R+RDwQG4qteVnQFrbvcQM/32Ai5NzUYns/NrvQeDDwCOAU/FZ3XX5GZDCcuBzRF9xIrAkNx2Vzc6vO24CjgUeC/xvbiq14mdAgrOJpcZfD9yWnIsqYufXPZcATwaOIJYW7jrnAKjLrgYOA55O3PNXh1gAdNf3gd2JnbvuTM4lk58BddHtwJuAPYEfJ+eiJHZ+3baU2LlrZ+BTdHOmr58BdckSYt3+nYH/wGf6O83OTwB3Ae8AdgW+l5xL1fwMqCtOB+YRO/fdk5yLasDOT2uaDxwJPJFYUKgL/Ayo7S4itup9AXBdci6qETs/jeRcYtnPY4C/JedSNicBqq3+CryCWMXv/5JzUQ1ZAGg0K4GvAI8kVgJbmJtOafwMqG0WEvuCPBL4b+KzLEkD2wR4H3Ar0aG0Jb5SZCOpUY4i//wrMm4lPqObFNlIkrTKTOANxHyB7A6viDit2OZRg7SlAJhPLOAzs9jmkaSRTQFeREwWzO4AJxJfK7ph1BgvJv/8m0hcBLwQb2NJSvRU4BzyO8RB4nMltIea4Znkn3+DxFnAISW0hyQN7DHAN4nFRbI7yV7jQ2U0hBrh0eSff73GMuDrQzlLUm09HPgMsRNhdsc5XrympDZQ/c0l//wbLx4APg3sWFIbSFIpNgdOIPYayO5IR4tHlfbu1QTXkH8OjhR3ENt4zynvrUtS+WYTSw3fSH7HumZcXeabViP8M/nn4ZpxA/A2YP0y37QkVW0a8eTAj6jHPIEPlPt21QD7kn8eLgXOBJ4PTC337UpSvq2ITUmuJKfT/Rt+y1L4H3LOwcuBvwe2KP8tSlI9PZaY6HQH1XW+r6jknakJdiW2ya3ivLsdOIV4YkaSNGQ6cRn0TOKyaFmd8ClVvSE1xisp73xbCpxB7LQ5vaL3I0mNtQUxcfD3FNsZfwtXTtPIPkyx59plwHHE0zCSpAE8BvhXYAGDd8aLiDkHDv4ay8uBuxn8PFsAnAzsXXXiktRm04AjiElbvd6zvQ/4DnGfV+rF9sQmUb0WAkuIc/II4hyVGmFSdgLSgOYC+wPbAtsNxYbAPUNxF3A+8DNgcVKOarZpwJOBg4gtdjcGNgLuJda0uBH4K3GeLUjKUZIkSZIkSZIkSZIkSZIkSZIkSa33/wGqXnFnZWCSoAAAAABJRU5ErkJggg==;" parent="1" vertex="1">
                    <mxGeometry x="995" y="625" width="100" height="100" as="geometry"/>
                </mxCell>
                <mxCell id="52" value="Cloud Functions" style="editableCssRules=.*;shape=image;verticalLabelPosition=bottom;labelBackgroundColor=none;verticalAlign=top;aspect=fixed;imageAspect=0;image=data:image/svg+xml,PHN2ZyB4bWxucz0iaHR0cDovL3d3dy53My5vcmcvMjAwMC9zdmciIHhtbG5zOnY9Imh0dHBzOi8vdmVjdGEuaW8vbmFubyIgd2lkdGg9IjIwIiBoZWlnaHQ9IjE5Ljk4OTk5OTc3MTExODE2NCIgdmlld0JveD0iMCAwIDIwIDE5Ljk4OTk5OTc3MTExODE2NCI+JiN4YTsJPHN0eWxlIHR5cGU9InRleHQvY3NzIj4mI3hhOwkuc3Qwe2ZpbGw6IzQyODVmNDt9JiN4YTsJLnN0MXtmaWxsOiM2NjlkZjY7fSYjeGE7CS5zdDJ7ZmlsbDojYWVjYmZhO30mI3hhOwk8L3N0eWxlPiYjeGE7CTxwYXRoIGNsYXNzPSJzdDEiIGQ9Ik0zIDMuOTlMMCA2LjQydjcuMTNsMyAyLjQ0eiIvPiYjeGE7CTxwYXRoIGNsYXNzPSJzdDAiIGQ9Ik0zIDMuOTlsLTMgNCAzLTJ6bS0zIDhsMyA0di0yeiIvPiYjeGE7CTxwYXRoIGNsYXNzPSJzdDIiIGQ9Ik0wIDE1Ljk5bDQgNCAyLTItNi02em0uMDEtOEw1Ljk5IDJsLTItMkwwIDMuOTl6Ii8+JiN4YTsJPHBhdGggY2xhc3M9InN0MSIgZD0iTTE3IDE2bDMtMi40MlY2LjQ0TDE3IDR6Ii8+JiN4YTsJPHBhdGggY2xhc3M9InN0MCIgZD0iTTE3IDE2bDMtNC0zIDJ6bTMtOGwtMy00djJ6Ii8+JiN4YTsJPGcgY2xhc3M9InN0MiI+JiN4YTsJCTxwYXRoIGQ9Ik0yMCA0bC00LTQtMiAyIDYgNnptLS4wMSA4bC01Ljk4IDUuOTkgMiAyTDIwIDE2eiIvPiYjeGE7CQk8Y2lyY2xlIGN4PSI2IiBjeT0iOS45OSIgcj0iMSIvPiYjeGE7CQk8Y2lyY2xlIGN4PSIxMCIgY3k9IjkuOTkiIHI9IjEiLz4mI3hhOwkJPGNpcmNsZSBjeD0iMTMuOTkiIGN5PSI5Ljk5IiByPSIxIi8+JiN4YTsJPC9nPiYjeGE7PC9zdmc+;fontSize=24;" vertex="1" parent="1">
                    <mxGeometry x="395" y="351" width="100" height="100" as="geometry"/>
                </mxCell>
            </root>
        </mxGraphModel>
    </diagram>
</mxfile>